<svg width="368" height="144" viewBox="0 0 368 144" fill="none" xmlns="http://www.w3.org/2000/svg">
<g clip-path="url(#clip0_9_746)">
<mask id="mask0_9_746" style="mask-type:luminance" maskUnits="userSpaceOnUse" x="42" y="1" width="18" height="7">
<path d="M42 1.33337H59.3333V8.00004H42V1.33337Z" fill="white"/>
</mask>
<g mask="url(#mask0_9_746)">
<mask id="mask1_9_746" style="mask-type:luminance" maskUnits="userSpaceOnUse" x="-29" y="-31" width="203" height="202">
<path d="M-28.6146 56.0573L91.599 -30.2656L173.839 84.2656L53.625 170.589L-28.6146 56.0573Z" fill="white"/>
</mask>
<g mask="url(#mask1_9_746)">
<mask id="mask2_9_746" style="mask-type:luminance" maskUnits="userSpaceOnUse" x="-29" y="-31" width="203" height="202">
<path d="M-28.6146 56.0573L91.599 -30.2656L173.839 84.2656L53.625 170.589L-28.6146 56.0573Z" fill="white"/>
</mask>
<g mask="url(#mask2_9_746)">
<path d="M51.5 4.11981C43.875 7.54689 43.4167 7.75523 42.9479 7.54169C43.4896 5.95315 54.2187 1.93231 58.1042 1.33856C57.9479 1.46877 57.9479 1.46877 57.1562 1.76565C55.5989 2.34898 54.0364 2.97398 51.5 4.11981Z" fill="#A71D31"/>
</g>
</g>
</g>
<mask id="mask3_9_746" style="mask-type:luminance" maskUnits="userSpaceOnUse" x="50" y="0" width="14" height="8">
<path d="M50 0H63.3333V8H50V0Z" fill="white"/>
</mask>
<g mask="url(#mask3_9_746)">
<mask id="mask4_9_746" style="mask-type:luminance" maskUnits="userSpaceOnUse" x="-29" y="-31" width="203" height="202">
<path d="M-28.6146 56.0573L91.599 -30.2656L173.839 84.2656L53.625 170.589L-28.6146 56.0573Z" fill="white"/>
</mask>
<g mask="url(#mask4_9_746)">
<mask id="mask5_9_746" style="mask-type:luminance" maskUnits="userSpaceOnUse" x="-29" y="-31" width="203" height="202">
<path d="M-28.6146 56.0573L91.599 -30.2656L173.839 84.2656L53.625 170.589L-28.6146 56.0573Z" fill="white"/>
</mask>
<g mask="url(#mask5_9_746)">
<path d="M59.1406 3.75521C53.1823 7.36458 50.0208 7.5625 50.3542 6.45833C50.9479 4.50521 59.1458 1.31771 62.5312 1.04688C62.6146 1.04688 62.7292 1.05208 62.8073 1.07292C62.8229 1.09896 62.8437 1.14583 62.8594 1.17188C62.5521 1.6875 59.2812 3.67188 59.1406 3.75521Z" fill="#A71D31"/>
</g>
</g>
</g>
<mask id="mask6_9_746" style="mask-type:luminance" maskUnits="userSpaceOnUse" x="60" y="0" width="12" height="8">
<path d="M60.6667 0H71.3333V8H60.6667V0Z" fill="white"/>
</mask>
<g mask="url(#mask6_9_746)">
<mask id="mask7_9_746" style="mask-type:luminance" maskUnits="userSpaceOnUse" x="-29" y="-31" width="203" height="202">
<path d="M-28.6146 56.0573L91.599 -30.2656L173.839 84.2656L53.625 170.589L-28.6146 56.0573Z" fill="white"/>
</mask>
<g mask="url(#mask7_9_746)">
<mask id="mask8_9_746" style="mask-type:luminance" maskUnits="userSpaceOnUse" x="-29" y="-31" width="203" height="202">
<path d="M-28.6146 56.0573L91.599 -30.2656L173.839 84.2656L53.625 170.589L-28.6146 56.0573Z" fill="white"/>
</mask>
<g mask="url(#mask8_9_746)">
<path d="M69.2083 3.64583C66.6354 6.97917 61.2604 7.56771 61.0052 5.70833C60.7187 3.67708 66.0937 1.03646 69.0208 0.90625C71.2292 0.984374 69.2865 3.53646 69.2083 3.64583Z" fill="#A71D31"/>
</g>
</g>
</g>
<mask id="mask9_9_746" style="mask-type:luminance" maskUnits="userSpaceOnUse" x="71" y="0" width="10" height="8">
<path d="M71.3333 0H80.6667V8H71.3333V0Z" fill="white"/>
</mask>
<g mask="url(#mask9_9_746)">
<mask id="mask10_9_746" style="mask-type:luminance" maskUnits="userSpaceOnUse" x="-29" y="-31" width="203" height="202">
<path d="M-28.6146 56.0573L91.599 -30.2656L173.839 84.2656L53.625 170.589L-28.6146 56.0573Z" fill="white"/>
</mask>
<g mask="url(#mask10_9_746)">
<mask id="mask11_9_746" style="mask-type:luminance" maskUnits="userSpaceOnUse" x="-29" y="-31" width="203" height="202">
<path d="M-28.6146 56.0573L91.599 -30.2656L173.839 84.2656L53.625 170.589L-28.6146 56.0573Z" fill="white"/>
</mask>
<g mask="url(#mask11_9_746)">
<path d="M79.8177 3.79688C80.3385 6.51563 76.0937 7.74479 73.7031 6.17188C71.1875 4.52083 73.0156 1.55208 75.4687 1.02604C75.7708 0.958334 76.0208 0.953125 76.224 0.953125C78.125 1.05729 79.5677 2.51042 79.8177 3.79688Z" fill="#A71D31"/>
</g>
</g>
</g>
<mask id="mask12_9_746" style="mask-type:luminance" maskUnits="userSpaceOnUse" x="82" y="0" width="10" height="8">
<path d="M82 0H91.3333V8H82V0Z" fill="white"/>
</mask>
<g mask="url(#mask12_9_746)">
<mask id="mask13_9_746" style="mask-type:luminance" maskUnits="userSpaceOnUse" x="-29" y="-31" width="203" height="202">
<path d="M-28.6146 56.0573L91.599 -30.2656L173.839 84.2656L53.625 170.589L-28.6146 56.0573Z" fill="white"/>
</mask>
<g mask="url(#mask13_9_746)">
<mask id="mask14_9_746" style="mask-type:luminance" maskUnits="userSpaceOnUse" x="-29" y="-31" width="203" height="202">
<path d="M-28.6146 56.0573L91.599 -30.2656L173.839 84.2656L53.625 170.589L-28.6146 56.0573Z" fill="white"/>
</mask>
<g mask="url(#mask14_9_746)">
<path d="M89.8906 4.17188C91.7344 5.88021 91.151 7.14063 89.4531 7.24479C85.3698 7.48958 81.1615 2.63542 82.5052 1.36458C82.7188 1.16146 83.0625 1.15625 83.3177 1.15625C85.0417 1.29687 88.1667 2.56771 89.8906 4.17188Z" fill="#A71D31"/>
</g>
</g>
</g>
<mask id="mask15_9_746" style="mask-type:luminance" maskUnits="userSpaceOnUse" x="88" y="1" width="14" height="7">
<path d="M88.6667 1.33337H102V8.00004H88.6667V1.33337Z" fill="white"/>
</mask>
<g mask="url(#mask15_9_746)">
<mask id="mask16_9_746" style="mask-type:luminance" maskUnits="userSpaceOnUse" x="-29" y="-31" width="203" height="202">
<path d="M-28.6146 56.0573L91.599 -30.2656L173.839 84.2656L53.625 170.589L-28.6146 56.0573Z" fill="white"/>
</mask>
<g mask="url(#mask16_9_746)">
<mask id="mask17_9_746" style="mask-type:luminance" maskUnits="userSpaceOnUse" x="-29" y="-31" width="203" height="202">
<path d="M-28.6146 56.0573L91.599 -30.2656L173.839 84.2656L53.625 170.589L-28.6146 56.0573Z" fill="white"/>
</mask>
<g mask="url(#mask17_9_746)">
<path d="M98.3594 4.7448C101.172 6.34376 101.911 7.59897 100.979 7.84376C100.349 8.01564 98.6562 7.69793 95.9583 6.25001C93.6823 5.03126 89.2083 1.97918 89.2344 1.56251C89.3073 1.50522 89.3489 1.50001 89.5625 1.50522C91.1875 1.68751 95.3229 3.01043 98.3594 4.7448Z" fill="#A71D31"/>
</g>
</g>
</g>
<mask id="mask18_9_746" style="mask-type:luminance" maskUnits="userSpaceOnUse" x="94" y="1" width="16" height="9">
<path d="M94 1.33337H110V9.33337H94V1.33337Z" fill="white"/>
</mask>
<g mask="url(#mask18_9_746)">
<mask id="mask19_9_746" style="mask-type:luminance" maskUnits="userSpaceOnUse" x="-29" y="-31" width="203" height="202">
<path d="M-28.6146 56.0573L91.599 -30.2656L173.839 84.2656L53.625 170.589L-28.6146 56.0573Z" fill="white"/>
</mask>
<g mask="url(#mask19_9_746)">
<mask id="mask20_9_746" style="mask-type:luminance" maskUnits="userSpaceOnUse" x="-29" y="-31" width="203" height="202">
<path d="M-28.6146 56.0573L91.599 -30.2656L173.839 84.2656L53.625 170.589L-28.6146 56.0573Z" fill="white"/>
</mask>
<g mask="url(#mask20_9_746)">
<path d="M103.99 5.44794C106.547 6.64585 109.229 8.22398 109.104 8.69273C108.964 8.7396 108.672 8.84377 106.396 7.82815C106.292 7.77606 94.2604 2.07815 94.1146 1.97919L94.2031 1.96356C95.0521 2.12502 99.4844 3.34377 103.99 5.44794Z" fill="#A71D31"/>
</g>
</g>
</g>
<mask id="mask21_9_746" style="mask-type:luminance" maskUnits="userSpaceOnUse" x="23" y="9" width="15" height="14">
<path d="M23.3333 9.33337H38V22.6667H23.3333V9.33337Z" fill="white"/>
</mask>
<g mask="url(#mask21_9_746)">
<mask id="mask22_9_746" style="mask-type:luminance" maskUnits="userSpaceOnUse" x="-29" y="-31" width="203" height="202">
<path d="M-28.6146 56.0573L91.599 -30.2656L173.839 84.2656L53.625 170.589L-28.6146 56.0573Z" fill="white"/>
</mask>
<g mask="url(#mask22_9_746)">
<mask id="mask23_9_746" style="mask-type:luminance" maskUnits="userSpaceOnUse" x="-29" y="-31" width="203" height="202">
<path d="M-28.6146 56.0573L91.599 -30.2656L173.839 84.2656L53.625 170.589L-28.6146 56.0573Z" fill="white"/>
</mask>
<g mask="url(#mask23_9_746)">
<path d="M31.2187 15.724C26.526 19.7865 23.901 21.6771 23.4114 21.3386C23.2135 19.599 33.7917 11.25 36.7396 10.375L36.8489 10.3698C36.875 10.5677 36.901 10.7969 31.2187 15.724Z" fill="#A71D31"/>
</g>
</g>
</g>
<mask id="mask24_9_746" style="mask-type:luminance" maskUnits="userSpaceOnUse" x="30" y="9" width="15" height="13">
<path d="M30 9.33337H44.6667V21.3334H30V9.33337Z" fill="white"/>
</mask>
<g mask="url(#mask24_9_746)">
<mask id="mask25_9_746" style="mask-type:luminance" maskUnits="userSpaceOnUse" x="-29" y="-31" width="203" height="202">
<path d="M-28.6146 56.0573L91.599 -30.2656L173.839 84.2656L53.625 170.589L-28.6146 56.0573Z" fill="white"/>
</mask>
<g mask="url(#mask25_9_746)">
<mask id="mask26_9_746" style="mask-type:luminance" maskUnits="userSpaceOnUse" x="-29" y="-31" width="203" height="202">
<path d="M-28.6146 56.0573L91.599 -30.2656L173.839 84.2656L53.625 170.589L-28.6146 56.0573Z" fill="white"/>
</mask>
<g mask="url(#mask26_9_746)">
<path d="M40.9948 14.9688C36.375 19.7292 31.1458 21.7604 31.0833 19.5521C31.0052 16.5521 39.4479 10.1563 43.3073 9.65625C46.0885 9.68229 41.0469 14.9167 40.9948 14.9688Z" fill="#A71D31"/>
</g>
</g>
</g>
<mask id="mask27_9_746" style="mask-type:luminance" maskUnits="userSpaceOnUse" x="43" y="8" width="15" height="12">
<path d="M43.3333 8H58V20H43.3333V8Z" fill="white"/>
</mask>
<g mask="url(#mask27_9_746)">
<mask id="mask28_9_746" style="mask-type:luminance" maskUnits="userSpaceOnUse" x="-29" y="-31" width="203" height="202">
<path d="M-28.6146 56.0573L91.599 -30.2656L173.839 84.2656L53.625 170.589L-28.6146 56.0573Z" fill="white"/>
</mask>
<g mask="url(#mask28_9_746)">
<mask id="mask29_9_746" style="mask-type:luminance" maskUnits="userSpaceOnUse" x="-29" y="-31" width="203" height="202">
<path d="M-28.6146 56.0573L91.599 -30.2656L173.839 84.2656L53.625 170.589L-28.6146 56.0573Z" fill="white"/>
</mask>
<g mask="url(#mask29_9_746)">
<path d="M56.0208 14.5677C52.7708 19.7448 45.2396 21.4584 44.2812 18.1823C43.3542 15 49.6198 9.54692 54.5989 9.20837C58.4583 9.31775 56.9375 13.1146 56.0208 14.5677Z" fill="#A71D31"/>
</g>
</g>
</g>
<mask id="mask30_9_746" style="mask-type:luminance" maskUnits="userSpaceOnUse" x="60" y="8" width="14" height="12">
<path d="M60.6667 8H74V20H60.6667V8Z" fill="white"/>
</mask>
<g mask="url(#mask30_9_746)">
<mask id="mask31_9_746" style="mask-type:luminance" maskUnits="userSpaceOnUse" x="-29" y="-31" width="203" height="202">
<path d="M-28.6146 56.0573L91.599 -30.2656L173.839 84.2656L53.625 170.589L-28.6146 56.0573Z" fill="white"/>
</mask>
<g mask="url(#mask31_9_746)">
<mask id="mask32_9_746" style="mask-type:luminance" maskUnits="userSpaceOnUse" x="-29" y="-31" width="203" height="202">
<path d="M-28.6146 56.0573L91.599 -30.2656L173.839 84.2656L53.625 170.589L-28.6146 56.0573Z" fill="white"/>
</mask>
<g mask="url(#mask32_9_746)">
<path d="M73.2604 14.6042C72.1615 20.1146 63.9062 21.3282 61.6823 17.5261C59.7604 14.25 63.9219 9.29691 68.75 9.11462C72.5781 9.31254 73.6927 12.4427 73.2604 14.6042Z" fill="#A71D31"/>
</g>
</g>
</g>
<mask id="mask33_9_746" style="mask-type:luminance" maskUnits="userSpaceOnUse" x="78" y="9" width="14" height="13">
<path d="M78 9.33337H91.3333V21.3334H78V9.33337Z" fill="white"/>
</mask>
<g mask="url(#mask33_9_746)">
<mask id="mask34_9_746" style="mask-type:luminance" maskUnits="userSpaceOnUse" x="-29" y="-31" width="203" height="202">
<path d="M-28.6146 56.0573L91.599 -30.2656L173.839 84.2656L53.625 170.589L-28.6146 56.0573Z" fill="white"/>
</mask>
<g mask="url(#mask34_9_746)">
<mask id="mask35_9_746" style="mask-type:luminance" maskUnits="userSpaceOnUse" x="-29" y="-31" width="203" height="202">
<path d="M-28.6146 56.0573L91.599 -30.2656L173.839 84.2656L53.625 170.589L-28.6146 56.0573Z" fill="white"/>
</mask>
<g mask="url(#mask35_9_746)">
<path d="M90.5 15.0417C91.5833 19.5677 85.9063 21.4011 81.8385 18.9219C77.349 16.1875 78.0781 10.5834 81.9792 9.53127C82.5208 9.38544 83.0156 9.38023 83.4115 9.36981C87.3906 9.66669 89.9948 12.9323 90.5 15.0417Z" fill="#A71D31"/>
</g>
</g>
</g>
<mask id="mask36_9_746" style="mask-type:luminance" maskUnits="userSpaceOnUse" x="94" y="9" width="14" height="13">
<path d="M94 9.33337H107.333V21.3334H94V9.33337Z" fill="white"/>
</mask>
<g mask="url(#mask36_9_746)">
<mask id="mask37_9_746" style="mask-type:luminance" maskUnits="userSpaceOnUse" x="-29" y="-31" width="203" height="202">
<path d="M-28.6146 56.0573L91.599 -30.2656L173.839 84.2656L53.625 170.589L-28.6146 56.0573Z" fill="white"/>
</mask>
<g mask="url(#mask37_9_746)">
<mask id="mask38_9_746" style="mask-type:luminance" maskUnits="userSpaceOnUse" x="-29" y="-31" width="203" height="202">
<path d="M-28.6146 56.0573L91.599 -30.2656L173.839 84.2656L53.625 170.589L-28.6146 56.0573Z" fill="white"/>
</mask>
<g mask="url(#mask38_9_746)">
<path d="M105.979 15.8281C108.104 19.1875 106.427 21.5625 102.583 20.625C96.7917 19.2083 92.6979 11.8542 95.6458 10.2083C96.1354 9.9375 96.6042 9.9375 97.099 9.9375C100.505 10.2917 104.359 13.276 105.979 15.8281Z" fill="#A71D31"/>
</g>
</g>
</g>
<mask id="mask39_9_746" style="mask-type:luminance" maskUnits="userSpaceOnUse" x="107" y="10" width="14" height="13">
<path d="M107.333 10.6667H120.667V22.6667H107.333V10.6667Z" fill="white"/>
</mask>
<g mask="url(#mask39_9_746)">
<mask id="mask40_9_746" style="mask-type:luminance" maskUnits="userSpaceOnUse" x="-29" y="-31" width="203" height="202">
<path d="M-28.6146 56.0573L91.599 -30.2656L173.839 84.2656L53.625 170.589L-28.6146 56.0573Z" fill="white"/>
</mask>
<g mask="url(#mask40_9_746)">
<mask id="mask41_9_746" style="mask-type:luminance" maskUnits="userSpaceOnUse" x="-29" y="-31" width="203" height="202">
<path d="M-28.6146 56.0573L91.599 -30.2656L173.839 84.2656L53.625 170.589L-28.6146 56.0573Z" fill="white"/>
</mask>
<g mask="url(#mask41_9_746)">
<path d="M117.922 16.9063C120.656 19.8386 121.031 22.1302 118.74 21.9115C114.083 21.474 105.828 12.1042 107.594 10.8854C107.786 10.75 108.089 10.7604 108.333 10.7656C111.042 11.1979 115.474 14.2917 117.922 16.9063Z" fill="#A71D31"/>
</g>
</g>
</g>
<mask id="mask42_9_746" style="mask-type:luminance" maskUnits="userSpaceOnUse" x="114" y="10" width="15" height="14">
<path d="M114 10.6667H128.667V24H114V10.6667Z" fill="white"/>
</mask>
<g mask="url(#mask42_9_746)">
<mask id="mask43_9_746" style="mask-type:luminance" maskUnits="userSpaceOnUse" x="-29" y="-31" width="203" height="202">
<path d="M-28.6146 56.0573L91.599 -30.2656L173.839 84.2656L53.625 170.589L-28.6146 56.0573Z" fill="white"/>
</mask>
<g mask="url(#mask43_9_746)">
<mask id="mask44_9_746" style="mask-type:luminance" maskUnits="userSpaceOnUse" x="-29" y="-31" width="203" height="202">
<path d="M-28.6146 56.0573L91.599 -30.2656L173.839 84.2656L53.625 170.589L-28.6146 56.0573Z" fill="white"/>
</mask>
<g mask="url(#mask44_9_746)">
<path d="M123.964 18.0833C126.115 20.0573 128.375 22.4948 128.25 23.1823C126.885 23.9948 115.172 11.9583 115.141 11.7865C115.193 11.776 115.255 11.7604 115.307 11.75C116.458 12.1354 120.307 14.7292 123.964 18.0833Z" fill="#A71D31"/>
</g>
</g>
</g>
<mask id="mask45_9_746" style="mask-type:luminance" maskUnits="userSpaceOnUse" x="8" y="24" width="13" height="16">
<path d="M8.66666 24H20.6667V40H8.66666V24Z" fill="white"/>
</mask>
<g mask="url(#mask45_9_746)">
<mask id="mask46_9_746" style="mask-type:luminance" maskUnits="userSpaceOnUse" x="-29" y="-31" width="203" height="202">
<path d="M-28.6146 56.0573L91.599 -30.2656L173.839 84.2656L53.625 170.589L-28.6146 56.0573Z" fill="white"/>
</mask>
<g mask="url(#mask46_9_746)">
<mask id="mask47_9_746" style="mask-type:luminance" maskUnits="userSpaceOnUse" x="-29" y="-31" width="203" height="202">
<path d="M-28.6146 56.0573L91.599 -30.2656L173.839 84.2656L53.625 170.589L-28.6146 56.0573Z" fill="white"/>
</mask>
<g mask="url(#mask47_9_746)">
<path d="M14.8802 31.7708C10.4219 38.4479 9.83332 38.9219 9.61457 39.099L9.54166 39.0365C9.60416 38.8333 9.67186 38.6406 10.0469 37.9427L10.0677 37.9115C13.9427 31.3802 13.9427 31.3802 16.2604 28.3385L18.7187 25.2865C19.2083 24.7135 19.3333 24.6042 19.4844 24.4844L19.5312 24.5365C19.4219 24.7969 19.2448 25.2344 14.8802 31.7708Z" fill="#A71D31"/>
</g>
</g>
</g>
<mask id="mask48_9_746" style="mask-type:luminance" maskUnits="userSpaceOnUse" x="14" y="22" width="14" height="17">
<path d="M14 22.6667H27.3333V38.6667H14V22.6667Z" fill="white"/>
</mask>
<g mask="url(#mask48_9_746)">
<mask id="mask49_9_746" style="mask-type:luminance" maskUnits="userSpaceOnUse" x="-29" y="-31" width="203" height="202">
<path d="M-28.6146 56.0573L91.599 -30.2656L173.839 84.2656L53.625 170.589L-28.6146 56.0573Z" fill="white"/>
</mask>
<g mask="url(#mask49_9_746)">
<mask id="mask50_9_746" style="mask-type:luminance" maskUnits="userSpaceOnUse" x="-29" y="-31" width="203" height="202">
<path d="M-28.6146 56.0573L91.599 -30.2656L173.839 84.2656L53.625 170.589L-28.6146 56.0573Z" fill="white"/>
</mask>
<g mask="url(#mask50_9_746)">
<path d="M23.7083 30.6302C20.3698 36.0104 15.7552 39.4219 15.0469 37.0313C14.1042 33.8438 21.2656 24.1354 25.1354 23.3594C27.3854 23.349 25.4531 27.8125 23.7083 30.6302Z" fill="#A71D31"/>
</g>
</g>
</g>
<mask id="mask51_9_746" style="mask-type:luminance" maskUnits="userSpaceOnUse" x="26" y="21" width="16" height="17">
<path d="M26 21.3334H42V37.3334H26V21.3334Z" fill="white"/>
</mask>
<g mask="url(#mask51_9_746)">
<mask id="mask52_9_746" style="mask-type:luminance" maskUnits="userSpaceOnUse" x="-29" y="-31" width="203" height="202">
<path d="M-28.6146 56.0573L91.599 -30.2656L173.839 84.2656L53.625 170.589L-28.6146 56.0573Z" fill="white"/>
</mask>
<g mask="url(#mask52_9_746)">
<mask id="mask53_9_746" style="mask-type:luminance" maskUnits="userSpaceOnUse" x="-29" y="-31" width="203" height="202">
<path d="M-28.6146 56.0573L91.599 -30.2656L173.839 84.2656L53.625 170.589L-28.6146 56.0573Z" fill="white"/>
</mask>
<g mask="url(#mask53_9_746)">
<path d="M39.8229 29.8698C36.8229 35.9792 28.8437 39.1302 27.4479 34.75C26.1875 30.8125 31.8177 23.099 37.5469 22.5365C41.5573 22.625 41.2917 26.875 39.8229 29.8698Z" fill="#A71D31"/>
</g>
</g>
</g>
<mask id="mask54_9_746" style="mask-type:luminance" maskUnits="userSpaceOnUse" x="46" y="21" width="16" height="17">
<path d="M46 21.3334H62V37.3334H46V21.3334Z" fill="white"/>
</mask>
<g mask="url(#mask54_9_746)">
<mask id="mask55_9_746" style="mask-type:luminance" maskUnits="userSpaceOnUse" x="-29" y="-31" width="203" height="202">
<path d="M-28.6146 56.0573L91.599 -30.2656L173.839 84.2656L53.625 170.589L-28.6146 56.0573Z" fill="white"/>
</mask>
<g mask="url(#mask55_9_746)">
<mask id="mask56_9_746" style="mask-type:luminance" maskUnits="userSpaceOnUse" x="-29" y="-31" width="203" height="202">
<path d="M-28.6146 56.0573L91.599 -30.2656L173.839 84.2656L53.625 170.589L-28.6146 56.0573Z" fill="white"/>
</mask>
<g mask="url(#mask56_9_746)">
<path d="M61.0469 29.6355C59.2396 36.0782 49.599 38.7709 46.7187 33.6407C44.4062 29.5209 48.9115 22.5157 55.7187 22.1459C61.0625 22.375 61.8229 26.8594 61.0469 29.6355Z" fill="#A71D31"/>
</g>
</g>
</g>
<mask id="mask57_9_746" style="mask-type:luminance" maskUnits="userSpaceOnUse" x="67" y="21" width="18" height="17">
<path d="M67.3333 21.3334H84.6667V37.3334H67.3333V21.3334Z" fill="white"/>
</mask>
<g mask="url(#mask57_9_746)">
<mask id="mask58_9_746" style="mask-type:luminance" maskUnits="userSpaceOnUse" x="-29" y="-31" width="203" height="202">
<path d="M-28.6146 56.0573L91.599 -30.2656L173.839 84.2656L53.625 170.589L-28.6146 56.0573Z" fill="white"/>
</mask>
<g mask="url(#mask58_9_746)">
<mask id="mask59_9_746" style="mask-type:luminance" maskUnits="userSpaceOnUse" x="-29" y="-31" width="203" height="202">
<path d="M-28.6146 56.0573L91.599 -30.2656L173.839 84.2656L53.625 170.589L-28.6146 56.0573Z" fill="white"/>
</mask>
<g mask="url(#mask59_9_746)">
<path d="M83.4219 29.948C83.151 36.1823 74.625 38.8646 70.0052 34.1719C65.9375 30.0417 68.6771 22.4792 75.901 22.2709C81.3021 22.6198 83.5521 26.9688 83.4219 29.948Z" fill="#A71D31"/>
</g>
</g>
</g>
<mask id="mask60_9_746" style="mask-type:luminance" maskUnits="userSpaceOnUse" x="90" y="22" width="16" height="16">
<path d="M90 22.6667H106V37.3334H90V22.6667Z" fill="white"/>
</mask>
<g mask="url(#mask60_9_746)">
<mask id="mask61_9_746" style="mask-type:luminance" maskUnits="userSpaceOnUse" x="-29" y="-31" width="203" height="202">
<path d="M-28.6146 56.0573L91.599 -30.2656L173.839 84.2656L53.625 170.589L-28.6146 56.0573Z" fill="white"/>
</mask>
<g mask="url(#mask61_9_746)">
<mask id="mask62_9_746" style="mask-type:luminance" maskUnits="userSpaceOnUse" x="-29" y="-31" width="203" height="202">
<path d="M-28.6146 56.0573L91.599 -30.2656L173.839 84.2656L53.625 170.589L-28.6146 56.0573Z" fill="white"/>
</mask>
<g mask="url(#mask62_9_746)">
<path d="M104.672 30.7448C105.734 36.3073 99.7917 39.1719 94.4219 35.6875C88.3073 31.7292 89.2344 23.823 94.4844 22.9271C94.8646 22.8594 95.3802 22.8542 95.7708 22.849C100.958 23.3177 104.099 27.75 104.672 30.7448Z" fill="#A71D31"/>
</g>
</g>
</g>
<mask id="mask63_9_746" style="mask-type:luminance" maskUnits="userSpaceOnUse" x="108" y="22" width="16" height="17">
<path d="M108.667 22.6667H123.333V38.6667H108.667V22.6667Z" fill="white"/>
</mask>
<g mask="url(#mask63_9_746)">
<mask id="mask64_9_746" style="mask-type:luminance" maskUnits="userSpaceOnUse" x="-29" y="-31" width="203" height="202">
<path d="M-28.6146 56.0573L91.599 -30.2656L173.839 84.2656L53.625 170.589L-28.6146 56.0573Z" fill="white"/>
</mask>
<g mask="url(#mask64_9_746)">
<mask id="mask65_9_746" style="mask-type:luminance" maskUnits="userSpaceOnUse" x="-29" y="-31" width="203" height="202">
<path d="M-28.6146 56.0573L91.599 -30.2656L173.839 84.2656L53.625 170.589L-28.6146 56.0573Z" fill="white"/>
</mask>
<g mask="url(#mask65_9_746)">
<path d="M122.536 31.9479C124.385 36.6198 121.797 39.5886 117.401 37.8334C110.698 35.1511 107.729 25.5209 111.802 24C112.313 23.8125 112.844 23.8177 113.266 23.8229C117.62 24.3959 121.37 29.0104 122.536 31.9479Z" fill="#A71D31"/>
</g>
</g>
</g>
<mask id="mask66_9_746" style="mask-type:luminance" maskUnits="userSpaceOnUse" x="124" y="24" width="13" height="16">
<path d="M124.667 24H136.667V40H124.667V24Z" fill="white"/>
</mask>
<g mask="url(#mask66_9_746)">
<mask id="mask67_9_746" style="mask-type:luminance" maskUnits="userSpaceOnUse" x="-29" y="-31" width="203" height="202">
<path d="M-28.6146 56.0573L91.599 -30.2656L173.839 84.2656L53.625 170.589L-28.6146 56.0573Z" fill="white"/>
</mask>
<g mask="url(#mask67_9_746)">
<mask id="mask68_9_746" style="mask-type:luminance" maskUnits="userSpaceOnUse" x="-29" y="-31" width="203" height="202">
<path d="M-28.6146 56.0573L91.599 -30.2656L173.839 84.2656L53.625 170.589L-28.6146 56.0573Z" fill="white"/>
</mask>
<g mask="url(#mask68_9_746)">
<path d="M134.406 33.4375C136.687 37.5886 136.594 40.474 134.203 39.7344C129.755 38.3698 122.661 26.2396 125.672 25.1563C125.839 25.0938 126.083 25.1094 126.26 25.1146C129.083 25.7604 132.724 30.3698 134.406 33.4375Z" fill="#A71D31"/>
</g>
</g>
</g>
<mask id="mask69_9_746" style="mask-type:luminance" maskUnits="userSpaceOnUse" x="131" y="25" width="11" height="18">
<path d="M131.333 25.3334H142V42.6667H131.333V25.3334Z" fill="white"/>
</mask>
<g mask="url(#mask69_9_746)">
<mask id="mask70_9_746" style="mask-type:luminance" maskUnits="userSpaceOnUse" x="-29" y="-31" width="203" height="202">
<path d="M-28.6146 56.0573L91.599 -30.2656L173.839 84.2656L53.625 170.589L-28.6146 56.0573Z" fill="white"/>
</mask>
<g mask="url(#mask70_9_746)">
<mask id="mask71_9_746" style="mask-type:luminance" maskUnits="userSpaceOnUse" x="-29" y="-31" width="203" height="202">
<path d="M-28.6146 56.0573L91.599 -30.2656L173.839 84.2656L53.625 170.589L-28.6146 56.0573Z" fill="white"/>
</mask>
<g mask="url(#mask71_9_746)">
<path d="M141.234 40.7084C141.422 41.1094 141.458 41.2396 141.495 41.3698L141.427 41.4271C140.406 40.5157 132.458 27.6511 132.031 26.5209L132.078 26.474C132.234 26.6094 132.297 26.6771 132.693 27.1667L135.135 30.4167C139.281 36.7761 139.281 36.7761 140.99 40.2032L141.099 40.4271C141.141 40.5105 141.198 40.625 141.234 40.7084Z" fill="#A71D31"/>
</g>
</g>
</g>
<mask id="mask72_9_746" style="mask-type:luminance" maskUnits="userSpaceOnUse" x="3" y="40" width="10" height="19">
<path d="M3.33333 40H12.6667V58.6667H3.33333V40Z" fill="white"/>
</mask>
<g mask="url(#mask72_9_746)">
<mask id="mask73_9_746" style="mask-type:luminance" maskUnits="userSpaceOnUse" x="-29" y="-31" width="203" height="202">
<path d="M-28.6146 56.0573L91.599 -30.2656L173.839 84.2656L53.625 170.589L-28.6146 56.0573Z" fill="white"/>
</mask>
<g mask="url(#mask73_9_746)">
<mask id="mask74_9_746" style="mask-type:luminance" maskUnits="userSpaceOnUse" x="-29" y="-31" width="203" height="202">
<path d="M-28.6146 56.0573L91.599 -30.2656L173.839 84.2656L53.625 170.589L-28.6146 56.0573Z" fill="white"/>
</mask>
<g mask="url(#mask74_9_746)">
<path d="M10.3489 49.2031C8.3854 55.1094 5.54165 59.0781 4.71353 57.0729C3.55207 54.25 7.73436 41.6146 10.901 40.4948C12.6198 40.4531 11.4739 45.8125 10.3489 49.2031Z" fill="#A71D31"/>
</g>
</g>
</g>
<mask id="mask75_9_746" style="mask-type:luminance" maskUnits="userSpaceOnUse" x="12" y="38" width="14" height="20">
<path d="M12.6667 38.6667H26V57.3334H12.6667V38.6667Z" fill="white"/>
</mask>
<g mask="url(#mask75_9_746)">
<mask id="mask76_9_746" style="mask-type:luminance" maskUnits="userSpaceOnUse" x="-29" y="-31" width="203" height="202">
<path d="M-28.6146 56.0573L91.599 -30.2656L173.839 84.2656L53.625 170.589L-28.6146 56.0573Z" fill="white"/>
</mask>
<g mask="url(#mask76_9_746)">
<mask id="mask77_9_746" style="mask-type:luminance" maskUnits="userSpaceOnUse" x="-29" y="-31" width="203" height="202">
<path d="M-28.6146 56.0573L91.599 -30.2656L173.839 84.2656L53.625 170.589L-28.6146 56.0573Z" fill="white"/>
</mask>
<g mask="url(#mask77_9_746)">
<path d="M24.5573 48.1042C22.4271 55.0521 16.3333 58.823 14.2083 54.5157C12.0312 50.0886 16.2135 40.1042 21.6979 39.3177C25.5208 39.3698 25.6719 44.4896 24.5573 48.1042Z" fill="#A71D31"/>
</g>
</g>
</g>
<mask id="mask78_9_746" style="mask-type:luminance" maskUnits="userSpaceOnUse" x="30" y="37" width="18" height="19">
<path d="M30 37.3334H47.3333V56H30V37.3334Z" fill="white"/>
</mask>
<g mask="url(#mask78_9_746)">
<mask id="mask79_9_746" style="mask-type:luminance" maskUnits="userSpaceOnUse" x="-29" y="-31" width="203" height="202">
<path d="M-28.6146 56.0573L91.599 -30.2656L173.839 84.2656L53.625 170.589L-28.6146 56.0573Z" fill="white"/>
</mask>
<g mask="url(#mask79_9_746)">
<mask id="mask80_9_746" style="mask-type:luminance" maskUnits="userSpaceOnUse" x="-29" y="-31" width="203" height="202">
<path d="M-28.6146 56.0573L91.599 -30.2656L173.839 84.2656L53.625 170.589L-28.6146 56.0573Z" fill="white"/>
</mask>
<g mask="url(#mask80_9_746)">
<path d="M46.4062 47.5208C44.5729 55.1667 34.8385 58.3802 31.526 52.4375C28.7292 47.4271 32.9323 39.1198 40.2656 38.5781C46.25 38.7708 47.2083 44.1667 46.4062 47.5208Z" fill="#A71D31"/>
</g>
</g>
</g>
<mask id="mask81_9_746" style="mask-type:luminance" maskUnits="userSpaceOnUse" x="54" y="37" width="19" height="19">
<path d="M54 37.3334H72.6667V56H54V37.3334Z" fill="white"/>
</mask>
<g mask="url(#mask81_9_746)">
<mask id="mask82_9_746" style="mask-type:luminance" maskUnits="userSpaceOnUse" x="-29" y="-31" width="203" height="202">
<path d="M-28.6146 56.0573L91.599 -30.2656L173.839 84.2656L53.625 170.589L-28.6146 56.0573Z" fill="white"/>
</mask>
<g mask="url(#mask82_9_746)">
<mask id="mask83_9_746" style="mask-type:luminance" maskUnits="userSpaceOnUse" x="-29" y="-31" width="203" height="202">
<path d="M-28.6146 56.0573L91.599 -30.2656L173.839 84.2656L53.625 170.589L-28.6146 56.0573Z" fill="white"/>
</mask>
<g mask="url(#mask83_9_746)">
<path d="M71.4583 47.5781C70.3854 55.3073 60.1979 58.2188 55.6562 52.0938C51.9531 47.1042 55.599 38.7552 63.5312 38.4219C69.8281 38.7708 71.9531 43.9844 71.4583 47.5781Z" fill="#A71D31"/>
</g>
</g>
</g>
<mask id="mask84_9_746" style="mask-type:luminance" maskUnits="userSpaceOnUse" x="103" y="38" width="17" height="20">
<path d="M103.333 38.6667H119.333V57.3334H103.333V38.6667Z" fill="white"/>
</mask>
<g mask="url(#mask84_9_746)">
<mask id="mask85_9_746" style="mask-type:luminance" maskUnits="userSpaceOnUse" x="-29" y="-31" width="203" height="202">
<path d="M-28.6146 56.0573L91.599 -30.2656L173.839 84.2656L53.625 170.589L-28.6146 56.0573Z" fill="white"/>
</mask>
<g mask="url(#mask85_9_746)">
<mask id="mask86_9_746" style="mask-type:luminance" maskUnits="userSpaceOnUse" x="-29" y="-31" width="203" height="202">
<path d="M-28.6146 56.0573L91.599 -30.2656L173.839 84.2656L53.625 170.589L-28.6146 56.0573Z" fill="white"/>
</mask>
<g mask="url(#mask86_9_746)">
<path d="M119.01 49.3594C119.604 56.3021 112.776 59.3333 107.417 54.5052C101.729 49.3854 102.979 40.1614 109.411 39.7812C109.63 39.7656 109.922 39.7812 110.141 39.7812C115.75 40.401 118.708 45.7552 119.01 49.3594Z" fill="#A71D31"/>
</g>
</g>
</g>
<mask id="mask87_9_746" style="mask-type:luminance" maskUnits="userSpaceOnUse" x="0" y="61" width="4" height="21">
<path d="M0.666664 61.3334H3.33333V81.3334H0.666664V61.3334Z" fill="white"/>
</mask>
<g mask="url(#mask87_9_746)">
<mask id="mask88_9_746" style="mask-type:luminance" maskUnits="userSpaceOnUse" x="-29" y="-31" width="203" height="202">
<path d="M-28.6146 56.0573L91.599 -30.2656L173.839 84.2656L53.625 170.589L-28.6146 56.0573Z" fill="white"/>
</mask>
<g mask="url(#mask88_9_746)">
<mask id="mask89_9_746" style="mask-type:luminance" maskUnits="userSpaceOnUse" x="-29" y="-31" width="203" height="202">
<path d="M-28.6146 56.0573L91.599 -30.2656L173.839 84.2656L53.625 170.589L-28.6146 56.0573Z" fill="white"/>
</mask>
<g mask="url(#mask89_9_746)">
<path d="M3.09374 71.6771C3.0052 74.974 2.66666 80.5729 1.9427 80.6354C1.70312 80.4167 1.4427 79.7396 1.26562 76.3386L1.20833 71.7084L1.51562 66.0886C1.87499 62.4011 2.21874 62.0365 2.36458 61.8802L2.46354 61.8698C3.14583 62.5156 3.18229 68.3386 3.09374 71.6771Z" fill="#A71D31"/>
</g>
</g>
</g>
<mask id="mask90_9_746" style="mask-type:luminance" maskUnits="userSpaceOnUse" x="4" y="60" width="10" height="20">
<path d="M4.66666 60H14V80H4.66666V60Z" fill="white"/>
</mask>
<g mask="url(#mask90_9_746)">
<mask id="mask91_9_746" style="mask-type:luminance" maskUnits="userSpaceOnUse" x="-29" y="-31" width="203" height="202">
<path d="M-28.6146 56.0573L91.599 -30.2656L173.839 84.2656L53.625 170.589L-28.6146 56.0573Z" fill="white"/>
</mask>
<g mask="url(#mask91_9_746)">
<mask id="mask92_9_746" style="mask-type:luminance" maskUnits="userSpaceOnUse" x="-29" y="-31" width="203" height="202">
<path d="M-28.6146 56.0573L91.599 -30.2656L173.839 84.2656L53.625 170.589L-28.6146 56.0573Z" fill="white"/>
</mask>
<g mask="url(#mask92_9_746)">
<path d="M13.5312 70.3281C13.125 76.974 9.93228 81.1302 7.42707 78.2656C4.07812 74.4479 4.96353 61.474 9.67186 60.4219C12.75 60.4427 13.7812 66.224 13.5312 70.3281Z" fill="#A71D31"/>
</g>
</g>
</g>
<mask id="mask93_9_746" style="mask-type:luminance" maskUnits="userSpaceOnUse" x="18" y="58" width="15" height="21">
<path d="M18 58.6667H32.6667V78.6667H18V58.6667Z" fill="white"/>
</mask>
<g mask="url(#mask93_9_746)">
<mask id="mask94_9_746" style="mask-type:luminance" maskUnits="userSpaceOnUse" x="-29" y="-31" width="203" height="202">
<path d="M-28.6146 56.0573L91.599 -30.2656L173.839 84.2656L53.625 170.589L-28.6146 56.0573Z" fill="white"/>
</mask>
<g mask="url(#mask94_9_746)">
<mask id="mask95_9_746" style="mask-type:luminance" maskUnits="userSpaceOnUse" x="-29" y="-31" width="203" height="202">
<path d="M-28.6146 56.0573L91.599 -30.2656L173.839 84.2656L53.625 170.589L-28.6146 56.0573Z" fill="white"/>
</mask>
<g mask="url(#mask95_9_746)">
<path d="M32.5885 69.4271C31.849 77.1875 24.5312 80.9323 20.5365 75.5938C16.6042 70.3385 18.9427 60.0833 25.7083 59.3594C31.099 59.5052 32.974 65.3333 32.5885 69.4271Z" fill="#A71D31"/>
</g>
</g>
</g>
<mask id="mask96_9_746" style="mask-type:luminance" maskUnits="userSpaceOnUse" x="39" y="58" width="19" height="21">
<path d="M39.3333 58.6667H58V78.6667H39.3333V58.6667Z" fill="white"/>
</mask>
<g mask="url(#mask96_9_746)">
<mask id="mask97_9_746" style="mask-type:luminance" maskUnits="userSpaceOnUse" x="-29" y="-31" width="203" height="202">
<path d="M-28.6146 56.0573L91.599 -30.2656L173.839 84.2656L53.625 170.589L-28.6146 56.0573Z" fill="white"/>
</mask>
<g mask="url(#mask97_9_746)">
<mask id="mask98_9_746" style="mask-type:luminance" maskUnits="userSpaceOnUse" x="-29" y="-31" width="203" height="202">
<path d="M-28.6146 56.0573L91.599 -30.2656L173.839 84.2656L53.625 170.589L-28.6146 56.0573Z" fill="white"/>
</mask>
<g mask="url(#mask98_9_746)">
<path d="M57.6823 69.151C56.7708 77.375 47.0208 80.5833 42.1094 74.276C37.8073 68.75 40.9115 59.349 49.1927 58.8594C56.1719 59.1823 58.1042 65.3437 57.6823 69.151Z" fill="#A71D31"/>
</g>
</g>
</g>
<mask id="mask99_9_746" style="mask-type:luminance" maskUnits="userSpaceOnUse" x="66" y="58" width="19" height="21">
<path d="M66 58.6667H84.6667V78.6667H66V58.6667Z" fill="white"/>
</mask>
<g mask="url(#mask99_9_746)">
<mask id="mask100_9_746" style="mask-type:luminance" maskUnits="userSpaceOnUse" x="-29" y="-31" width="203" height="202">
<path d="M-28.6146 56.0573L91.599 -30.2656L173.839 84.2656L53.625 170.589L-28.6146 56.0573Z" fill="white"/>
</mask>
<g mask="url(#mask100_9_746)">
<mask id="mask101_9_746" style="mask-type:luminance" maskUnits="userSpaceOnUse" x="-29" y="-31" width="203" height="202">
<path d="M-28.6146 56.0573L91.599 -30.2656L173.839 84.2656L53.625 170.589L-28.6146 56.0573Z" fill="white"/>
</mask>
<g mask="url(#mask101_9_746)">
<path d="M84.1354 69.5208C83.1823 77.7813 73.0677 80.7552 67.9844 74.2656C63.5677 68.625 66.7708 59.3021 75.276 59.0156C82.5573 59.5208 84.5781 65.7292 84.1354 69.5208Z" fill="#A71D31"/>
</g>
</g>
</g>
<mask id="mask102_9_746" style="mask-type:luminance" maskUnits="userSpaceOnUse" x="3" y="84" width="9" height="19">
<path d="M3.33333 84H11.3333V102.667H3.33333V84Z" fill="white"/>
</mask>
<g mask="url(#mask102_9_746)">
<mask id="mask103_9_746" style="mask-type:luminance" maskUnits="userSpaceOnUse" x="-29" y="-31" width="203" height="202">
<path d="M-28.6146 56.0573L91.599 -30.2656L173.839 84.2656L53.625 170.589L-28.6146 56.0573Z" fill="white"/>
</mask>
<g mask="url(#mask103_9_746)">
<mask id="mask104_9_746" style="mask-type:luminance" maskUnits="userSpaceOnUse" x="-29" y="-31" width="203" height="202">
<path d="M-28.6146 56.0573L91.599 -30.2656L173.839 84.2656L53.625 170.589L-28.6146 56.0573Z" fill="white"/>
</mask>
<g mask="url(#mask104_9_746)">
<path d="M10.5052 94.2343C11.7239 99 11.6614 103.37 9.61978 102.021C6.51041 99.9635 2.16145 86.1979 5.26562 84.9375C7.22916 84.9114 9.51041 90.3593 10.5052 94.2343Z" fill="#A71D31"/>
</g>
</g>
</g>
<mask id="mask105_9_746" style="mask-type:luminance" maskUnits="userSpaceOnUse" x="12" y="82" width="14" height="20">
<path d="M12.6667 82.6667H26V101.333H12.6667V82.6667Z" fill="white"/>
</mask>
<g mask="url(#mask105_9_746)">
<mask id="mask106_9_746" style="mask-type:luminance" maskUnits="userSpaceOnUse" x="-29" y="-31" width="203" height="202">
<path d="M-28.6146 56.0573L91.599 -30.2656L173.839 84.2656L53.625 170.589L-28.6146 56.0573Z" fill="white"/>
</mask>
<g mask="url(#mask106_9_746)">
<mask id="mask107_9_746" style="mask-type:luminance" maskUnits="userSpaceOnUse" x="-29" y="-31" width="203" height="202">
<path d="M-28.6146 56.0573L91.599 -30.2656L173.839 84.2656L53.625 170.589L-28.6146 56.0573Z" fill="white"/>
</mask>
<g mask="url(#mask107_9_746)">
<path d="M24.5052 93.1511C25.4375 99.1719 22.3229 102.823 18.4583 100.25C12.875 96.5417 11.3802 84.9792 16.3281 83.7605C16.4896 83.7188 16.7083 83.698 16.875 83.6771C21.1406 83.75 23.9062 89.2605 24.5052 93.1511Z" fill="#A71D31"/>
</g>
</g>
</g>
<mask id="mask108_9_746" style="mask-type:luminance" maskUnits="userSpaceOnUse" x="30" y="82" width="18" height="20">
<path d="M30 82.6667H47.3333V101.333H30V82.6667Z" fill="white"/>
</mask>
<g mask="url(#mask108_9_746)">
<mask id="mask109_9_746" style="mask-type:luminance" maskUnits="userSpaceOnUse" x="-29" y="-31" width="203" height="202">
<path d="M-28.6146 56.0573L91.599 -30.2656L173.839 84.2656L53.625 170.589L-28.6146 56.0573Z" fill="white"/>
</mask>
<g mask="url(#mask109_9_746)">
<mask id="mask110_9_746" style="mask-type:luminance" maskUnits="userSpaceOnUse" x="-29" y="-31" width="203" height="202">
<path d="M-28.6146 56.0573L91.599 -30.2656L173.839 84.2656L53.625 170.589L-28.6146 56.0573Z" fill="white"/>
</mask>
<g mask="url(#mask110_9_746)">
<path d="M46.0312 92.5781C46.2187 99.7135 39.1041 102.87 33.75 98.0313C28.7448 93.5 28.625 83.526 36.8333 82.875C43.0104 83.0937 45.9323 88.6823 46.0312 92.5781Z" fill="#A71D31"/>
</g>
</g>
</g>
<mask id="mask111_9_746" style="mask-type:luminance" maskUnits="userSpaceOnUse" x="52" y="82" width="20" height="20">
<path d="M52.6667 82.6667H71.3333V101.333H52.6667V82.6667Z" fill="white"/>
</mask>
<g mask="url(#mask111_9_746)">
<mask id="mask112_9_746" style="mask-type:luminance" maskUnits="userSpaceOnUse" x="-29" y="-31" width="203" height="202">
<path d="M-28.6146 56.0573L91.599 -30.2656L173.839 84.2656L53.625 170.589L-28.6146 56.0573Z" fill="white"/>
</mask>
<g mask="url(#mask112_9_746)">
<mask id="mask113_9_746" style="mask-type:luminance" maskUnits="userSpaceOnUse" x="-29" y="-31" width="203" height="202">
<path d="M-28.6146 56.0573L91.599 -30.2656L173.839 84.2656L53.625 170.589L-28.6146 56.0573Z" fill="white"/>
</mask>
<g mask="url(#mask113_9_746)">
<path d="M70.724 92.6355C69.9271 100.625 60.3385 103.026 55.4115 96.4636C51.3698 91.0938 54.0208 83.073 61.849 82.7084C68.6094 83.1042 71.1094 88.75 70.724 92.6355Z" fill="#A71D31"/>
</g>
</g>
</g>
<mask id="mask114_9_746" style="mask-type:luminance" maskUnits="userSpaceOnUse" x="8" y="105" width="13" height="17">
<path d="M8.66666 105.333H20.6667V121.333H8.66666V105.333Z" fill="white"/>
</mask>
<g mask="url(#mask114_9_746)">
<mask id="mask115_9_746" style="mask-type:luminance" maskUnits="userSpaceOnUse" x="-29" y="-31" width="203" height="202">
<path d="M-28.6146 56.0573L91.599 -30.2656L173.839 84.2656L53.625 170.589L-28.6146 56.0573Z" fill="white"/>
</mask>
<g mask="url(#mask115_9_746)">
<mask id="mask116_9_746" style="mask-type:luminance" maskUnits="userSpaceOnUse" x="-29" y="-31" width="203" height="202">
<path d="M-28.6146 56.0573L91.599 -30.2656L173.839 84.2656L53.625 170.589L-28.6146 56.0573Z" fill="white"/>
</mask>
<g mask="url(#mask116_9_746)">
<path d="M15.8437 114.068C18.4792 118.167 19.7031 120.432 19.4792 120.797C17.9375 120.922 8.8229 107.302 9.61978 106.083C10.6042 106.005 14.9792 112.719 15.8437 114.068Z" fill="#A71D31"/>
</g>
</g>
</g>
<mask id="mask117_9_746" style="mask-type:luminance" maskUnits="userSpaceOnUse" x="14" y="104" width="12" height="16">
<path d="M14 104H26V120H14V104Z" fill="white"/>
</mask>
<g mask="url(#mask117_9_746)">
<mask id="mask118_9_746" style="mask-type:luminance" maskUnits="userSpaceOnUse" x="-29" y="-31" width="203" height="202">
<path d="M-28.6146 56.0573L91.599 -30.2656L173.839 84.2656L53.625 170.589L-28.6146 56.0573Z" fill="white"/>
</mask>
<g mask="url(#mask118_9_746)">
<mask id="mask119_9_746" style="mask-type:luminance" maskUnits="userSpaceOnUse" x="-29" y="-31" width="203" height="202">
<path d="M-28.6146 56.0573L91.599 -30.2656L173.839 84.2656L53.625 170.589L-28.6146 56.0573Z" fill="white"/>
</mask>
<g mask="url(#mask119_9_746)">
<path d="M24.3229 112.969C26.2291 116.755 26.7292 120.281 24.2552 119.635C19.6042 118.417 12.8021 107.083 15.4844 105.026C15.6458 104.906 15.9219 104.833 16.1198 104.786C18.7708 104.797 22.3229 109.01 24.3229 112.969Z" fill="#A71D31"/>
</g>
</g>
</g>
<mask id="mask120_9_746" style="mask-type:luminance" maskUnits="userSpaceOnUse" x="26" y="102" width="15" height="18">
<path d="M26 102.667H40.6667V120H26V102.667Z" fill="white"/>
</mask>
<g mask="url(#mask120_9_746)">
<mask id="mask121_9_746" style="mask-type:luminance" maskUnits="userSpaceOnUse" x="-29" y="-31" width="203" height="202">
<path d="M-28.6146 56.0573L91.599 -30.2656L173.839 84.2656L53.625 170.589L-28.6146 56.0573Z" fill="white"/>
</mask>
<g mask="url(#mask121_9_746)">
<mask id="mask122_9_746" style="mask-type:luminance" maskUnits="userSpaceOnUse" x="-29" y="-31" width="203" height="202">
<path d="M-28.6146 56.0573L91.599 -30.2656L173.839 84.2656L53.625 170.589L-28.6146 56.0573Z" fill="white"/>
</mask>
<g mask="url(#mask122_9_746)">
<path d="M39.7969 112.24C41.2396 117.188 38.5573 120.818 33.4896 117.844C26.9479 114.005 24.5208 104.885 29.776 103.906C29.9583 103.875 30.2031 103.859 30.3854 103.839C35.2292 103.964 38.8021 108.823 39.7969 112.24Z" fill="#A71D31"/>
</g>
</g>
</g>
<mask id="mask123_9_746" style="mask-type:luminance" maskUnits="userSpaceOnUse" x="22" y="121" width="15" height="14">
<path d="M22 121.333H36.6667V134.667H22V121.333Z" fill="white"/>
</mask>
<g mask="url(#mask123_9_746)">
<mask id="mask124_9_746" style="mask-type:luminance" maskUnits="userSpaceOnUse" x="-29" y="-31" width="203" height="202">
<path d="M-28.6146 56.0573L91.599 -30.2656L173.839 84.2656L53.625 170.589L-28.6146 56.0573Z" fill="white"/>
</mask>
<g mask="url(#mask124_9_746)">
<mask id="mask125_9_746" style="mask-type:luminance" maskUnits="userSpaceOnUse" x="-29" y="-31" width="203" height="202">
<path d="M-28.6146 56.0573L91.599 -30.2656L173.839 84.2656L53.625 170.589L-28.6146 56.0573Z" fill="white"/>
</mask>
<g mask="url(#mask125_9_746)">
<path d="M31.8594 128.792C35.2552 132.047 36.6875 133.771 36.1198 133.911C33.7917 134.484 21.5208 123.708 22.9948 122.38C23.0312 122.349 23.0989 122.328 23.1458 122.307C24.8906 122.281 29.8229 126.833 31.8594 128.792Z" fill="#A71D31"/>
</g>
</g>
</g>
<mask id="mask126_9_746" style="mask-type:luminance" maskUnits="userSpaceOnUse" x="30" y="121" width="14" height="13">
<path d="M30 121.333H43.3333V133.333H30V121.333Z" fill="white"/>
</mask>
<g mask="url(#mask126_9_746)">
<mask id="mask127_9_746" style="mask-type:luminance" maskUnits="userSpaceOnUse" x="-29" y="-31" width="203" height="202">
<path d="M-28.6146 56.0573L91.599 -30.2656L173.839 84.2656L53.625 170.589L-28.6146 56.0573Z" fill="white"/>
</mask>
<g mask="url(#mask127_9_746)">
<mask id="mask128_9_746" style="mask-type:luminance" maskUnits="userSpaceOnUse" x="-29" y="-31" width="203" height="202">
<path d="M-28.6146 56.0573L91.599 -30.2656L173.839 84.2656L53.625 170.589L-28.6146 56.0573Z" fill="white"/>
</mask>
<g mask="url(#mask128_9_746)">
<path d="M41.0625 128.078C42.5781 130.083 44.5052 133.422 42.0989 133.219C37.7864 132.854 28.3437 124.255 30.7187 121.76C30.9792 121.49 31.3542 121.432 31.6562 121.38C34.6771 121.432 38.651 124.891 41.0625 128.078Z" fill="#A71D31"/>
</g>
</g>
</g>
<mask id="mask129_9_746" style="mask-type:luminance" maskUnits="userSpaceOnUse" x="42" y="120" width="15" height="14">
<path d="M42 120H56.6667V133.333H42V120Z" fill="white"/>
</mask>
<g mask="url(#mask129_9_746)">
<mask id="mask130_9_746" style="mask-type:luminance" maskUnits="userSpaceOnUse" x="-29" y="-31" width="203" height="202">
<path d="M-28.6146 56.0573L91.599 -30.2656L173.839 84.2656L53.625 170.589L-28.6146 56.0573Z" fill="white"/>
</mask>
<g mask="url(#mask130_9_746)">
<mask id="mask131_9_746" style="mask-type:luminance" maskUnits="userSpaceOnUse" x="-29" y="-31" width="203" height="202">
<path d="M-28.6146 56.0573L91.599 -30.2656L173.839 84.2656L53.625 170.589L-28.6146 56.0573Z" fill="white"/>
</mask>
<g mask="url(#mask131_9_746)">
<path d="M55.2083 127.703C56.6302 131.563 54.8906 134.255 50.1198 131.953C43.974 128.979 40.9115 122.198 45.1615 120.958C45.4896 120.865 45.9479 120.823 46.2917 120.797C51.026 120.964 54.2187 125.016 55.2083 127.703Z" fill="#A71D31"/>
</g>
</g>
</g>
<mask id="mask132_9_746" style="mask-type:luminance" maskUnits="userSpaceOnUse" x="59" y="120" width="14" height="14">
<path d="M59.3333 120H72.6667V133.333H59.3333V120Z" fill="white"/>
</mask>
<g mask="url(#mask132_9_746)">
<mask id="mask133_9_746" style="mask-type:luminance" maskUnits="userSpaceOnUse" x="-29" y="-31" width="203" height="202">
<path d="M-28.6146 56.0573L91.599 -30.2656L173.839 84.2656L53.625 170.589L-28.6146 56.0573Z" fill="white"/>
</mask>
<g mask="url(#mask133_9_746)">
<mask id="mask134_9_746" style="mask-type:luminance" maskUnits="userSpaceOnUse" x="-29" y="-31" width="203" height="202">
<path d="M-28.6146 56.0573L91.599 -30.2656L173.839 84.2656L53.625 170.589L-28.6146 56.0573Z" fill="white"/>
</mask>
<g mask="url(#mask134_9_746)">
<path d="M71.4323 127.74C71.1823 132.734 65.7656 134.766 61.5885 129.839C58.3698 126.052 59.2708 120.927 64.6302 120.677C69.0937 120.932 71.5937 124.469 71.4323 127.74Z" fill="#A71D31"/>
</g>
</g>
</g>
<mask id="mask135_9_746" style="mask-type:luminance" maskUnits="userSpaceOnUse" x="40" y="134" width="17" height="10">
<path d="M40.6667 134.667H56.6667V144H40.6667V134.667Z" fill="white"/>
</mask>
<g mask="url(#mask135_9_746)">
<mask id="mask136_9_746" style="mask-type:luminance" maskUnits="userSpaceOnUse" x="-29" y="-31" width="203" height="202">
<path d="M-28.6146 56.0573L91.599 -30.2656L173.839 84.2656L53.625 170.589L-28.6146 56.0573Z" fill="white"/>
</mask>
<g mask="url(#mask136_9_746)">
<mask id="mask137_9_746" style="mask-type:luminance" maskUnits="userSpaceOnUse" x="-29" y="-31" width="203" height="202">
<path d="M-28.6146 56.0573L91.599 -30.2656L173.839 84.2656L53.625 170.589L-28.6146 56.0573Z" fill="white"/>
</mask>
<g mask="url(#mask137_9_746)">
<path d="M50.8802 139.948C55.9271 142.786 55.9271 142.786 56.0833 142.953C56.0573 142.979 56.0313 143.01 56.0104 143.036C52.2865 142.984 39.5 136.495 41.1406 135.49C41.1823 135.464 41.2552 135.458 41.3073 135.443C42.901 135.458 46.599 137.536 50.8802 139.948Z" fill="#A71D31"/>
</g>
</g>
</g>
<mask id="mask138_9_746" style="mask-type:luminance" maskUnits="userSpaceOnUse" x="47" y="134" width="14" height="10">
<path d="M47.3333 134.667H60.6667V144H47.3333V134.667Z" fill="white"/>
</mask>
<g mask="url(#mask138_9_746)">
<mask id="mask139_9_746" style="mask-type:luminance" maskUnits="userSpaceOnUse" x="-29" y="-31" width="203" height="202">
<path d="M-28.6146 56.0573L91.599 -30.2656L173.839 84.2656L53.625 170.589L-28.6146 56.0573Z" fill="white"/>
</mask>
<g mask="url(#mask139_9_746)">
<mask id="mask140_9_746" style="mask-type:luminance" maskUnits="userSpaceOnUse" x="-29" y="-31" width="203" height="202">
<path d="M-28.6146 56.0573L91.599 -30.2656L173.839 84.2656L53.625 170.589L-28.6146 56.0573Z" fill="white"/>
</mask>
<g mask="url(#mask140_9_746)">
<path d="M57.974 139.615C61.5 142.688 60.6302 142.734 60.3438 142.75C57.3906 142.906 46.7917 136.958 48.5104 135.177C48.6927 134.984 49.026 134.948 49.276 134.917C52.4531 135.005 56.7396 138.536 57.974 139.615Z" fill="#A71D31"/>
</g>
</g>
</g>
<mask id="mask141_9_746" style="mask-type:luminance" maskUnits="userSpaceOnUse" x="58" y="134" width="11" height="9">
<path d="M58 134.667H68.6667V142.667H58V134.667Z" fill="white"/>
</mask>
<g mask="url(#mask141_9_746)">
<mask id="mask142_9_746" style="mask-type:luminance" maskUnits="userSpaceOnUse" x="-29" y="-31" width="203" height="202">
<path d="M-28.6146 56.0573L91.599 -30.2656L173.839 84.2656L53.625 170.589L-28.6146 56.0573Z" fill="white"/>
</mask>
<g mask="url(#mask142_9_746)">
<mask id="mask143_9_746" style="mask-type:luminance" maskUnits="userSpaceOnUse" x="-29" y="-31" width="203" height="202">
<path d="M-28.6146 56.0573L91.599 -30.2656L173.839 84.2656L53.625 170.589L-28.6146 56.0573Z" fill="white"/>
</mask>
<g mask="url(#mask143_9_746)">
<path d="M67.3125 139.51C67.7292 140.552 68.776 143.818 64.7604 142.099C60.0833 140.099 57.2969 136.057 59.7865 134.896C60.1667 134.719 60.6146 134.688 60.9427 134.667C64.0521 134.818 66.4271 137.286 67.3125 139.51Z" fill="#A71D31"/>
</g>
</g>
</g>
<mask id="mask144_9_746" style="mask-type:luminance" maskUnits="userSpaceOnUse" x="70" y="134" width="8" height="9">
<path d="M70 134.667H78V142.667H70V134.667Z" fill="white"/>
</mask>
<g mask="url(#mask144_9_746)">
<mask id="mask145_9_746" style="mask-type:luminance" maskUnits="userSpaceOnUse" x="-29" y="-31" width="203" height="202">
<path d="M-28.6146 56.0573L91.599 -30.2656L173.839 84.2656L53.625 170.589L-28.6146 56.0573Z" fill="white"/>
</mask>
<g mask="url(#mask145_9_746)">
<mask id="mask146_9_746" style="mask-type:luminance" maskUnits="userSpaceOnUse" x="-29" y="-31" width="203" height="202">
<path d="M-28.6146 56.0573L91.599 -30.2656L173.839 84.2656L53.625 170.589L-28.6146 56.0573Z" fill="white"/>
</mask>
<g mask="url(#mask146_9_746)">
<path d="M77.1667 139.646C75.8489 143.161 72.276 143.948 70.5625 139.911C69.5469 137.516 70.6458 134.865 73.8958 134.745C77.0052 134.969 78 137.417 77.1667 139.646Z" fill="#A71D31"/>
</g>
</g>
</g>
<mask id="mask147_9_746" style="mask-type:luminance" maskUnits="userSpaceOnUse" x="79" y="134" width="10" height="10">
<path d="M79.3333 134.667H88.6667V144H79.3333V134.667Z" fill="white"/>
</mask>
<g mask="url(#mask147_9_746)">
<mask id="mask148_9_746" style="mask-type:luminance" maskUnits="userSpaceOnUse" x="-29" y="-31" width="203" height="202">
<path d="M-28.6146 56.0573L91.599 -30.2656L173.839 84.2656L53.625 170.589L-28.6146 56.0573Z" fill="white"/>
</mask>
<g mask="url(#mask148_9_746)">
<mask id="mask149_9_746" style="mask-type:luminance" maskUnits="userSpaceOnUse" x="-29" y="-31" width="203" height="202">
<path d="M-28.6146 56.0573L91.599 -30.2656L173.839 84.2656L53.625 170.589L-28.6146 56.0573Z" fill="white"/>
</mask>
<g mask="url(#mask149_9_746)">
<path d="M86.5156 140C85.4375 140.943 79.3854 145.005 79.7448 141.396C79.9948 138.88 82.8125 135.177 86.651 135.115C89.5156 135.411 88.8802 137.927 86.5156 140Z" fill="#A71D31"/>
</g>
</g>
</g>
<mask id="mask150_9_746" style="mask-type:luminance" maskUnits="userSpaceOnUse" x="86" y="134" width="14" height="10">
<path d="M86 134.667H99.3333V144H86V134.667Z" fill="white"/>
</mask>
<g mask="url(#mask150_9_746)">
<mask id="mask151_9_746" style="mask-type:luminance" maskUnits="userSpaceOnUse" x="-29" y="-31" width="203" height="202">
<path d="M-28.6146 56.0573L91.599 -30.2656L173.839 84.2656L53.625 170.589L-28.6146 56.0573Z" fill="white"/>
</mask>
<g mask="url(#mask151_9_746)">
<mask id="mask152_9_746" style="mask-type:luminance" maskUnits="userSpaceOnUse" x="-29" y="-31" width="203" height="202">
<path d="M-28.6146 56.0573L91.599 -30.2656L173.839 84.2656L53.625 170.589L-28.6146 56.0573Z" fill="white"/>
</mask>
<g mask="url(#mask152_9_746)">
<path d="M94.3802 140.526C91.2812 142.208 86.2812 143.844 86.4687 142.927C86.6406 142.078 93.6667 135.719 97.8802 135.74C99.8437 136.042 98.2969 137.859 96.7812 139.01C96.1094 139.516 95.3021 140.026 94.3802 140.526Z" fill="#A71D31"/>
</g>
</g>
</g>
<path d="M101.559 66.1083C99.1421 66.1083 97.2307 68.0146 97.2307 70.4365V92.1135C97.2307 94.5302 99.1421 96.4417 101.559 96.4417H116.725C119.142 96.4417 121.054 94.5302 121.054 92.1135V79.7542H109.236V85.3688H114.778V89.6969C114.778 90.3583 114.267 90.8271 113.606 90.8271H104.715C104.054 90.8271 103.507 90.3583 103.507 89.6969V72.8531C103.507 72.1865 104.054 71.7229 104.715 71.7229H113.606C114.267 71.7229 114.778 72.1865 114.778 72.8531V74.5302H121.054V70.4365C121.054 68.0146 119.142 66.1083 116.725 66.1083H101.559Z" fill="#A71D31"/>
<path d="M133.996 66.1083V96.4417H155.829V90.8271H140.272V66.1083H133.996Z" fill="#A71D31"/>
<path d="M170.918 66.1083C168.575 66.1083 166.59 68.0927 166.59 70.4365V92.1135C166.59 94.4521 168.575 96.4417 170.918 96.4417H186.085C188.423 96.4417 190.413 94.4521 190.413 92.1135V70.4365C190.413 68.0927 188.423 66.1083 186.085 66.1083H170.918ZM174.075 71.7229H182.965C183.627 71.7229 184.137 72.1865 184.137 72.8531V89.6969C184.137 90.3583 183.627 90.8271 182.965 90.8271H174.075C173.413 90.8271 172.866 90.3583 172.866 89.6969V72.8531C172.866 72.1865 173.413 71.7229 174.075 71.7229Z" fill="#A71D31"/>
<path d="M203.356 66.1083V96.4417H222.85C225.267 96.4417 227.179 94.5302 227.179 92.1135V85.3688C227.179 83.499 226.007 81.9 224.371 81.275C226.007 80.65 227.179 79.0927 227.179 77.2177V70.4365C227.179 68.0146 225.267 66.1083 222.85 66.1083H203.356ZM209.632 84.0823H219.653C220.356 84.0823 220.903 84.6656 220.903 85.3688V89.6969C220.903 90.3583 220.392 90.8271 219.731 90.8271H209.632V84.0823ZM209.632 78.4677V71.7229H219.731C220.392 71.7229 220.903 72.1865 220.903 72.8531V77.2177C220.903 77.9208 220.356 78.4677 219.653 78.4677H209.632Z" fill="#A71D31"/>
<path d="M247.293 66.1083L238.168 96.4417H244.684L246.668 90.0458H258.288L260.277 96.4417H266.751L257.668 66.1083H247.293ZM248.387 84.4313L252.481 71.2125L256.574 84.4313H248.387Z" fill="#A71D31"/>
<path d="M277.744 66.1083V96.4417H299.578V90.8271H284.02V66.1083H277.744Z" fill="#A71D31"/>
<path d="M130.82 113.556C129.57 113.556 128.596 114.03 127.903 114.973C127.221 115.905 126.882 117.212 126.882 118.889C126.882 122.379 128.195 124.118 130.82 124.118C131.913 124.118 133.241 123.842 134.799 123.285V126.077C133.517 126.608 132.09 126.868 130.507 126.868C128.226 126.868 126.486 126.181 125.278 124.806C124.07 123.421 123.465 121.441 123.465 118.868C123.465 117.233 123.757 115.801 124.34 114.577C124.934 113.358 125.788 112.421 126.903 111.764C128.012 111.113 129.32 110.785 130.82 110.785C132.33 110.785 133.851 111.155 135.382 111.889L134.32 114.598C133.736 114.322 133.142 114.077 132.549 113.868C131.965 113.66 131.387 113.556 130.82 113.556Z" fill="#3F0D12"/>
<path d="M149.231 117.452L152.502 111.014H156.064L150.877 120.577V126.66H147.585V120.681L142.398 111.014H146.002L149.231 117.452Z" fill="#3F0D12"/>
<path d="M164.291 111.014H169.145C171.364 111.014 172.979 111.337 173.979 111.973C174.979 112.598 175.479 113.598 175.479 114.973C175.479 115.905 175.255 116.676 174.812 117.285C174.38 117.884 173.802 118.238 173.083 118.348V118.473C174.067 118.681 174.776 119.092 175.208 119.702C175.651 120.316 175.875 121.119 175.875 122.119C175.875 123.551 175.359 124.671 174.333 125.473C173.302 126.264 171.901 126.66 170.125 126.66H164.291V111.014ZM167.604 117.202H169.52C170.422 117.202 171.073 117.066 171.479 116.785C171.88 116.509 172.083 116.051 172.083 115.41C172.083 114.816 171.859 114.384 171.416 114.119C170.984 113.858 170.291 113.723 169.333 113.723H167.604V117.202ZM167.604 119.848V123.91H169.77C170.672 123.91 171.338 123.738 171.77 123.389C172.213 123.046 172.437 122.509 172.437 121.785C172.437 120.494 171.505 119.848 169.645 119.848H167.604Z" fill="#3F0D12"/>
<path d="M194.254 126.66H185.254V111.014H194.254V113.723H188.566V117.16H193.858V119.889H188.566V123.91H194.254V126.66Z" fill="#3F0D12"/>
<path d="M207.08 117.952H208.142C209.194 117.952 209.975 117.78 210.475 117.431C210.975 117.087 211.225 116.535 211.225 115.785C211.225 115.051 210.965 114.525 210.455 114.202C209.939 113.884 209.147 113.723 208.08 113.723H207.08V117.952ZM207.08 120.66V126.66H203.767V111.014H208.309C210.434 111.014 212.001 111.405 213.017 112.181C214.043 112.947 214.559 114.119 214.559 115.702C214.559 116.619 214.298 117.441 213.788 118.16C213.288 118.884 212.58 119.447 211.663 119.848C214.007 123.363 215.538 125.634 216.246 126.66H212.58L208.85 120.66H207.08Z" fill="#3F0D12"/>
<path d="M233.702 122.306C233.702 123.723 233.187 124.842 232.161 125.66C231.145 126.467 229.733 126.868 227.931 126.868C226.265 126.868 224.786 126.556 223.494 125.931V122.848C224.546 123.322 225.442 123.655 226.181 123.848C226.916 124.046 227.582 124.139 228.181 124.139C228.916 124.139 229.478 124.004 229.869 123.723C230.254 123.447 230.452 123.03 230.452 122.473C230.452 122.171 230.358 121.9 230.181 121.66C230.015 121.426 229.765 121.197 229.431 120.973C229.098 120.754 228.421 120.4 227.411 119.91C226.452 119.467 225.728 119.035 225.244 118.618C224.77 118.202 224.39 117.723 224.098 117.181C223.817 116.629 223.681 115.983 223.681 115.243C223.681 113.858 224.145 112.764 225.077 111.973C226.02 111.181 227.317 110.785 228.973 110.785C229.791 110.785 230.567 110.884 231.306 111.077C232.041 111.275 232.812 111.546 233.619 111.889L232.556 114.473C231.723 114.129 231.025 113.889 230.473 113.764C229.931 113.629 229.395 113.556 228.869 113.556C228.244 113.556 227.765 113.702 227.431 113.993C227.098 114.285 226.931 114.671 226.931 115.139C226.931 115.431 226.994 115.691 227.119 115.91C227.254 116.118 227.473 116.327 227.765 116.535C228.067 116.733 228.77 117.092 229.869 117.618C231.338 118.327 232.348 119.035 232.89 119.743C233.431 120.441 233.702 121.296 233.702 122.306Z" fill="#3F0D12"/>
<path d="M251.783 126.66H242.783V111.014H251.783V113.723H246.095V117.16H251.387V119.889H246.095V123.91H251.783V126.66Z" fill="#3F0D12"/>
<path d="M267.942 113.556C266.692 113.556 265.718 114.03 265.025 114.973C264.343 115.905 264.004 117.212 264.004 118.889C264.004 122.379 265.317 124.118 267.942 124.118C269.036 124.118 270.364 123.842 271.921 123.285V126.077C270.64 126.608 269.213 126.868 267.629 126.868C265.348 126.868 263.609 126.181 262.4 124.806C261.192 123.421 260.588 121.441 260.588 118.868C260.588 117.233 260.879 115.801 261.463 114.577C262.057 113.358 262.911 112.421 264.025 111.764C265.135 111.113 266.442 110.785 267.942 110.785C269.452 110.785 270.973 111.155 272.504 111.889L271.442 114.598C270.859 114.322 270.265 114.077 269.671 113.868C269.088 113.66 268.51 113.556 267.942 113.556Z" fill="#3F0D12"/>
<path d="M294.228 111.014V121.139C294.228 122.296 293.963 123.306 293.437 124.181C292.921 125.046 292.176 125.712 291.208 126.181C290.234 126.639 289.083 126.869 287.749 126.869C285.734 126.869 284.166 126.358 283.041 125.327C281.926 124.301 281.374 122.889 281.374 121.098V111.014H284.687V120.598C284.687 121.806 284.926 122.697 285.416 123.264C285.9 123.822 286.708 124.098 287.833 124.098C288.916 124.098 289.697 123.816 290.187 123.244C290.671 122.676 290.916 121.785 290.916 120.577V111.014H294.228Z" fill="#3F0D12"/>
<path d="M307.614 117.952H308.677C309.729 117.952 310.51 117.78 311.01 117.431C311.51 117.087 311.76 116.535 311.76 115.785C311.76 115.051 311.5 114.525 310.989 114.202C310.474 113.884 309.682 113.723 308.614 113.723H307.614V117.952ZM307.614 120.66V126.66H304.302V111.014H308.843C310.968 111.014 312.536 111.405 313.552 112.181C314.578 112.947 315.093 114.119 315.093 115.702C315.093 116.619 314.833 117.441 314.323 118.16C313.823 118.884 313.114 119.447 312.198 119.848C314.541 123.363 316.073 125.634 316.781 126.66H313.114L309.385 120.66H307.614Z" fill="#3F0D12"/>
<path d="M325.008 126.66V111.014H328.32V126.66H325.008Z" fill="#3F0D12"/>
<path d="M344.525 126.66H341.213V113.785H336.963V111.014H348.775V113.785H344.525V126.66Z" fill="#3F0D12"/>
<path d="M362.289 117.452L365.56 111.014H369.122L363.935 120.577V126.66H360.643V120.681L355.455 111.014H359.06L362.289 117.452Z" fill="#3F0D12"/>
</g>
<defs>
<clipPath id="clip0_9_746">
<rect width="368" height="144" fill="white"/>
</clipPath>
</defs>
</svg>
